<?xml version="1.0" encoding="UTF-8"?>
<!DOCTYPE svg PUBLIC "-//W3C//DTD SVG 1.1//EN" "http://www.w3.org/Graphics/SVG/1.1/DTD/svg11.dtd">
<!-- Creator: CorelDRAW 2018 (64-Bit) -->
<svg xmlns="http://www.w3.org/2000/svg" xml:space="preserve" width="4751px" height="888px" version="1.1" style="shape-rendering:geometricPrecision; text-rendering:geometricPrecision; image-rendering:optimizeQuality; fill-rule:evenodd; clip-rule:evenodd"
viewBox="0 0 4745.06 887.14"
 xmlns:xlink="http://www.w3.org/1999/xlink">
 <defs>
  <style type="text/css">
   <![CDATA[
    .str0 {stroke:#1B4E8D;stroke-width:2.08;stroke-miterlimit:2.61313}
    .fil0 {fill:#1B4E8D}
    .fil2 {fill:#1B4E8D}
    .fil1 {fill:#FEFEFF}
   ]]>
  </style>
 </defs>
 <g id="Layer_x0020_1">
  <metadata id="CorelCorpID_0Corel-Layer"/>
  <path class="fil0 str0" d="M3947.59 60.46c3.77,85.41 0.38,178.77 0.38,265.04 0,75.69 6.48,186.82 -6.04,257.88 -58.22,330.46 -499.7,327.31 -554.45,-4.57 -11.61,-70.36 -5.28,-181.05 -5.26,-256.43 0.03,-86.75 -1.5,-174.86 0.2,-261.99l107.45 0.84c2.4,138.27 0.17,278.71 0.14,417.22 -0.02,72.54 4.08,118.61 39.76,170.25 63.65,92.14 197.33,102.91 274.94,3.12 32.97,-42.39 36.29,-109.01 36.29,-173.37 -0.01,-137.58 -2.07,-276.99 0.27,-414.86l106.32 -3.13zm82.92 2.55l109.63 0.32c174.08,0.33 285.14,-9.53 407.35,82.64 210.19,158.51 180.3,516.96 -72.01,630.3 -127.54,57.3 -293.69,41.55 -444.95,41.64l-0.02 -754.9zm-1460 536.75c-54.12,-46.72 -109.32,45.7 -210.62,61.61 -95.91,15.05 -190.88,-42.76 -228.23,-125.22 -77.52,-171.13 62.71,-349.52 231.47,-321.99 101.04,16.49 153.42,109.96 209.12,60.43l84.1 -91 -0.91 508.23 -84.93 -92.06zm-2510.64 -539.39c86.39,0.22 173.2,-0.31 259.55,0.79 442.5,5.68 523.56,524.06 204.61,702.75 -122.52,68.65 -309.74,51.25 -464.41,51.31l0.25 -754.85zm1169.83 693.7c-13.04,12.47 -55.48,34.48 -75.08,44.44 -27.55,13.99 -57.75,25.62 -92.2,29.6 -73.95,8.55 -139.74,-23.5 -183.62,-56.7 -240.99,-182.29 -25.87,-574.13 257.7,-463.72 125.77,48.97 174.84,141.39 176.53,306.16l-262.98 -0.1c-29.66,0.01 -51.95,4.65 -72.33,-13.01 -32.45,-28.1 -26.57,-89 44.12,-90.77 53.61,-1.35 113.76,-1.16 166.63,-5.47 0.45,-53.02 -74.17,-108.57 -154.16,-103.84 -164.17,9.71 -204.04,219.29 -72.64,297.32 69.23,41.11 134.98,10.83 197.62,-19.44 9.35,4.14 64.13,66.43 70.41,75.53zm546.55 -450.29l115.34 4.61c-0.17,14.84 -148.22,359.35 -173.88,422.54 -49.64,122.24 -150.8,135.98 -209.88,-1.72l-176.4 -422.97 116.01 -0.83c4.44,18.52 104.49,254.39 120.37,292.02l41.05 93.83 167.39 -387.48zm936.87 -243.41c86.58,-0.5 205.49,-9.42 279.74,23.44 36.34,16.08 62.35,39.19 76.2,76.78 17.56,47.65 9.32,85.54 3.89,134.57 92.14,31.83 162.83,83.92 190.96,176.23 23.86,78.31 19.06,254.37 14.3,343.71 -9.06,-0.22 -99.3,0.24 -104.99,-7.76 -5.64,-12.55 -2.58,-160.4 -3.2,-188.43 -3.13,-141.75 -15.93,-198.28 -166.74,-214.05 -49.89,-5.22 -132.88,-10.31 -182.64,-6.4l0.15 413.94 -107.96 2.78 0.29 -754.81zm-107.17 661.54c-31.65,40.35 -135.51,85.71 -194.78,96.89 -159.54,30.09 -316.02,-32.77 -402.49,-159.68 -38.51,-56.5 -64.81,-135.67 -64.83,-221.18 -0.08,-324.23 339.4,-468.03 577.15,-344.11 26.18,13.65 72.2,42.55 84.86,60 -21.75,28.76 -47.54,51.14 -69.27,77.9 -29.68,-8.88 -71.77,-51.16 -143,-69.84 -147.75,-38.73 -339.63,71.02 -339.37,275.98 0.26,208.51 195.28,314.6 341.13,274.66 27.76,-7.6 51.39,-19.77 74.37,-31.73 19.85,-10.34 48.81,-31.7 66.96,-36.84 24.89,30.66 50.12,51.09 69.27,77.95zm145.21 -718.38c-895.22,12.77 -1807.04,2.97 -2705.03,4.3 -10.47,0.01 -17.89,3.51 -24.75,11.59 -24.11,28.36 -15.81,87.22 -18.51,140.65l0 555.6c0,62.8 -14.25,132.29 36.52,152.44 20.6,8.17 148.21,3.46 180.39,3.38 170.56,-0.38 302.57,-6.22 427.18,-128.17 45.99,-45 48.72,-64.87 77.72,-105.05 15.42,41.66 18.82,61.91 40.91,96.6 15.93,25.02 42.43,53.43 64.13,70.09 133.92,102.8 249.94,106.21 395.13,19.93 27.59,-16.4 63.06,-30.61 62.27,-71.71 -0.73,-37.67 -40.7,-57.05 -52.65,-82.33 43.5,-2.45 91.52,9.32 118.22,-17.74 30.97,-31.41 10.3,-71.27 14.26,-114l93.9 224.61c58.38,139.25 203.04,163.24 283.47,40.68 21.46,-32.7 142.96,-327.53 143.3,-333.55 9.53,55 10.93,85.68 30.15,135.58 43.3,112.38 126.86,195.63 245.49,244.55 123.82,51.07 285.71,39.32 402.44,-30.46 21.67,-12.94 85.22,-54.06 89.77,-68.6 4.91,41.91 -20.67,121.75 70.66,119.63 60.11,-1.39 132.91,9.87 148.39,-41.87 11.65,-38.94 -5.77,-313.89 3.69,-374.01 59.44,-3.81 187.02,1 217.22,62.49 25.82,52.58 18.57,195.84 19.38,263.06 0.29,23.85 -1.79,43.22 9.59,60.56 7.99,12.17 22.5,23.46 43.12,25.79 23.31,2.63 114.84,6.93 132.15,0.16 63.41,-24.79 22.58,-146.59 39.5,-241.58 29.19,102.08 90.54,185.69 182.2,227.47 109.98,50.14 232.84,39.35 328.19,-22.82 63.38,-41.32 90.46,-85.68 123.96,-149.33 0.91,33.36 -4.42,135.42 4.92,158.48 18.4,45.41 73.3,34.44 127.37,34.35 99.76,-0.16 214.29,7.04 307.88,-16.24 163.25,-40.61 284.7,-160.2 320.56,-328.38 21.31,-99.92 6.31,-194.42 -30.9,-277.43 -19.97,-44.57 -68.12,-110.15 -104.67,-138.65 -170.36,-132.8 -323.3,-105.89 -542.81,-107.05 -432.11,-2.28 -873.84,-9.17 -1304.71,-3.02z"/>
  <path class="fil1 str0" d="M4138.5 180.04c25.46,-5.78 142.64,-1.42 176.65,-0.78 337.44,6.25 356.96,511.66 -6.27,527.11 -32.81,1.39 -142.36,1.87 -170.38,-3.76l0 -522.57zm-107.78 638.45c151.26,-0.08 317.41,15.66 444.96,-41.63 252.3,-113.34 282.19,-471.8 72.01,-630.31 -122.22,-92.16 -233.27,-82.3 -407.35,-82.64l-109.64 -0.32 0.02 754.9z"/>
  <path class="fil1 str0" d="M167.61 176.43c48.21,-4.73 126.62,-0.86 177.37,0.16 338.73,6.76 353.79,511.14 -6.26,527.1 -43.12,1.91 -129.43,1.94 -171.11,-3.21l0 -524.05zm-107.79 639.38c154.67,-0.07 341.88,17.33 464.41,-51.31 318.95,-178.7 237.88,-697.08 -204.62,-702.75 -86.34,-1.11 -173.15,-0.57 -259.55,-0.8l-0.24 754.86z"/>
  <path class="fil1 str0" d="M2819.01 159.75c33.62,-0.14 70.46,-3.3 100.94,7.12 93.53,31.98 52.39,148.55 -98.7,117.48l-2.24 -124.6zm-105.98 656.01l107.95 -2.78 -0.15 -413.94c49.77,-3.91 132.75,1.18 182.65,6.4 150.8,15.78 163.61,72.3 166.73,214.05 0.62,28.04 -2.43,175.88 3.21,188.43 5.68,8 95.93,7.54 104.99,7.76 4.75,-89.33 9.55,-265.4 -14.31,-343.71 -28.13,-92.3 -98.81,-144.4 -190.96,-176.22 5.44,-49.04 13.67,-86.92 -3.88,-134.58 -13.85,-37.59 -39.87,-60.7 -76.2,-76.78 -74.25,-32.86 -193.17,-23.94 -279.74,-23.44l-0.29 754.81z"/>
  <path class="fil0 str0" d="M2655.63 692.41l0.91 -508.23 -84.1 91c-55.7,49.52 -108.07,-43.95 -209.12,-60.43 -168.75,-27.54 -308.99,150.85 -231.47,321.98 37.36,82.47 132.33,140.28 228.24,125.22 101.3,-15.9 156.5,-108.32 210.62,-61.61l84.92 92.07z"/>
  <path class="fil1 str0" d="M3947.79 61.05l-106.32 3.12c-2.35,137.88 -0.29,277.28 -0.28,414.86 0,64.36 -3.32,130.98 -36.28,173.37 -77.62,99.8 -211.29,89.03 -274.95,-3.12 -35.67,-51.64 -39.78,-97.71 -39.76,-170.25 0.04,-138.51 2.26,-278.94 -0.13,-417.22l-107.46 -0.83c-1.69,87.12 -0.17,175.24 -0.19,261.99 -0.03,75.37 -6.35,186.07 5.25,256.42 54.75,331.88 496.24,335.03 554.45,4.57 12.52,-71.06 6.04,-182.19 6.04,-257.87 0,-86.28 3.4,-179.64 -0.37,-265.04z"/>
  <path class="fil1 str0" d="M2606.14 722.49c-19.15,-26.85 -44.37,-47.29 -69.26,-77.95 -18.16,5.15 -47.11,26.51 -66.97,36.84 -22.98,11.96 -46.61,24.14 -74.37,31.74 -145.84,39.93 -340.86,-66.16 -341.13,-274.67 -0.26,-204.95 191.63,-314.71 339.38,-275.97 71.23,18.68 113.31,60.96 142.99,69.83 21.74,-26.75 47.52,-49.14 69.28,-77.89 -12.67,-17.46 -58.69,-46.36 -84.87,-60.01 -237.75,-123.92 -577.22,19.88 -577.15,344.11 0.02,85.51 26.33,164.68 64.83,221.19 86.48,126.9 242.95,189.76 402.5,159.67 59.27,-11.18 163.12,-56.53 194.77,-96.89z"/>
  <path class="fil1 str0" d="M1229.89 754.65c-6.27,-9.09 -61.05,-71.38 -70.4,-75.53 -62.65,30.28 -128.39,60.55 -197.62,19.44 -131.4,-78.03 -91.53,-287.61 72.64,-297.32 79.98,-4.72 154.61,50.82 154.16,103.85 -52.87,4.31 -113.02,4.12 -166.64,5.46 -70.68,1.77 -76.56,62.67 -44.12,90.78 20.39,17.65 42.68,13.01 72.33,13.01l262.99 0.1c-1.69,-164.78 -50.77,-257.2 -176.54,-306.16 -283.57,-110.41 -498.68,281.43 -257.7,463.72 43.88,33.19 109.68,65.24 183.62,56.69 34.45,-3.98 64.65,-15.61 92.2,-29.6 19.6,-9.95 62.05,-31.97 75.08,-44.44z"/>
  <path class="fil2 str0" d="M4195.25 648.62c91.25,1.29 156.81,8.52 229.37,-32.03 48.91,-27.33 93.04,-89.27 93.39,-171.93 0.35,-83.26 -42.04,-145.92 -89.21,-176.07 -67.53,-43.18 -144.37,-32.99 -233.55,-33.47l0 413.5z"/>
  <path class="fil2 str0" d="M224.37 233.73c-0.38,122.32 0.06,244.7 -0.02,367.03 -0.03,53.88 -10.33,45.05 42.44,46 84.18,1.52 155.35,2.04 221.23,-58.87 95.41,-88.21 77.63,-302.98 -86.06,-347.01 -31.13,-8.37 -145.16,-12.47 -177.59,-7.15z"/>
  <path class="fil1 str0" d="M1609.05 691.85l-41.04 -93.84c-15.89,-37.62 -115.94,-273.49 -120.37,-292.01l-116.02 0.83 176.4 422.97c59.09,137.69 160.24,123.95 209.88,1.71 25.66,-63.18 173.71,-407.7 173.88,-422.54l-115.34 -4.6 -167.39 387.48z"/>
  <path class="fil2 str0" d="M224.37 233.73c32.43,-5.32 146.46,-1.22 177.59,7.15 163.69,44.03 181.47,258.8 86.06,347.01 -65.88,60.91 -137.05,60.39 -221.23,58.87 -52.77,-0.95 -42.47,7.88 -42.44,-46 0.08,-122.33 -0.36,-244.71 0.02,-367.03zm-56.76 466.75c41.68,5.15 127.99,5.12 171.11,3.21 360.05,-15.96 344.99,-520.34 6.26,-527.1 -50.75,-1.02 -129.16,-4.89 -177.37,-0.16l0 524.05z"/>
  <path class="fil2 str0" d="M4195.25 648.62l0 -413.5c89.18,0.48 166.02,-9.71 233.55,33.47 47.17,30.15 89.56,92.81 89.21,176.07 -0.35,82.66 -44.48,144.6 -93.39,171.93 -72.56,40.55 -138.12,33.32 -229.37,32.03zm-56.75 53.99c28.02,5.63 137.57,5.15 170.38,3.76 363.23,-15.45 343.71,-520.86 6.27,-527.11 -34.01,-0.64 -151.19,-5 -176.65,0.78l0 522.57z"/>
  <path class="fil2 str0" d="M2821.25 284.35c151.09,31.07 192.23,-85.5 98.7,-117.48 -30.48,-10.42 -67.32,-7.26 -100.94,-7.12l2.24 124.6z"/>
 </g>
</svg>
