<?xml version="1.0" encoding="UTF-8" standalone="no"?>
<!-- Created with Inkscape (http://www.inkscape.org/) -->

<svg
   width="121.10236mm"
   height="135.45749mm"
   viewBox="0 0 121.10236 135.45749"
   version="1.1"
   id="svg5"
   inkscape:version="1.1 (c68e22c387, 2021-05-23)"
   sodipodi:docname="list.svg"
   xmlns:inkscape="http://www.inkscape.org/namespaces/inkscape"
   xmlns:sodipodi="http://sodipodi.sourceforge.net/DTD/sodipodi-0.dtd"
   xmlns="http://www.w3.org/2000/svg"
   xmlns:svg="http://www.w3.org/2000/svg">
  <sodipodi:namedview
     id="namedview7"
     pagecolor="#ffffff"
     bordercolor="#666666"
     borderopacity="1.0"
     inkscape:pageshadow="2"
     inkscape:pageopacity="0.0"
     inkscape:pagecheckerboard="0"
     inkscape:document-units="mm"
     showgrid="false"
     inkscape:zoom="0.47660634"
     inkscape:cx="335.70682"
     inkscape:cy="319.97056"
     inkscape:window-width="1366"
     inkscape:window-height="714"
     inkscape:window-x="0"
     inkscape:window-y="28"
     inkscape:window-maximized="1"
     inkscape:current-layer="layer1"
     fit-margin-top="0"
     fit-margin-left="0"
     fit-margin-right="0"
     fit-margin-bottom="0" />
  <defs
     id="defs2" />
  <g
     inkscape:label="Layer 1"
     inkscape:groupmode="layer"
     id="layer1"
     transform="translate(-16.276776,-63.758913)">
    <path
       style="fill:#1b4e8d;fill-opacity:1;stroke-width:0.264583"
       d="m 85.114963,198.63107 c -0.50209,-0.42248 -1.13327,-1.46383 -1.65971,-2.73824 -5.400444,-13.07353 -5.306014,-12.6489 -5.306014,-23.86003 v -8.22667 h -7.161144 c -4.753012,0 -7.355485,-0.0994 -7.739062,-0.29555 -1.990651,-1.01803 -1.990651,-3.68254 0,-4.70057 0.383577,-0.19616 2.98605,-0.29555 7.739062,-0.29555 h 7.161144 v -1.84215 c 0,-2.40608 0.718552,-4.32111 2.181965,-5.81522 3.646699,-3.72317 9.608339,-3.35757 12.600319,0.77274 0.49012,0.67659 1.58314,3.50216 3.06851,7.93243 1.26896,3.78482 2.55456,7.19595 2.85689,7.58029 0.66446,0.84474 2.406097,1.6769 3.526217,1.68485 1.35028,0.01 3.04365,-1.0635 3.73183,-2.36486 l 0.60926,-1.15214 0.002,-43.4162 c 0.001,-28.243594 0.0963,-43.997476 0.27192,-45.079526 0.36148,-2.227513 1.11346,-4.162699 2.3775,-6.11843 l 1.04653,-1.619183 -40.54428,0.07026 c -37.981081,0.06582 -40.619679,0.09971 -41.735029,0.536073 -1.750916,0.685011 -3.702455,2.267147 -4.822125,3.909356 -1.916283,2.810592 -1.792458,-0.950484 -1.792458,54.44438 v 49.84483 l 0.899583,0.89959 0.899584,0.89957 h 18.035517 c 12.762185,0 18.204494,0.0864 18.613437,0.29555 1.575305,0.80562 2.002885,2.793 0.865053,4.02074 -0.351399,0.37916 -0.916946,0.7584 -1.256771,0.84274 -0.339826,0.0843 -8.892706,0.11892 -19.006404,0.0768 -18.175198,-0.0756 -18.402812,-0.0831 -19.618632,-0.64513 -1.572348,-0.72685 -3.295261,-2.44976 -4.022108,-4.02211 l -0.568634,-1.23009 -0.07413,-50.40312 c -0.05328,-36.225335 0.0091,-50.904311 0.22164,-52.184888 0.954773,-5.751625 6.060545,-11.028426 11.860535,-12.257833 2.609626,-0.553154 94.288862,-0.553154 96.898492,0 5.79709,1.228792 10.89347,6.493857 11.86512,12.257833 0.20307,1.204708 0.27485,5.809206 0.22163,14.217182 -0.0765,12.079096 -0.095,12.470656 -0.64735,13.665506 -0.72684,1.57235 -2.44976,3.29526 -4.0221,4.02211 -1.17642,0.54382 -1.65436,0.57217 -10.95353,0.6497 l -9.72344,0.0811 v 1.21663 1.21662 l 4.70588,4.78772 c 4.61388,4.69412 6.65709,7.15786 8.58804,10.35557 2.31489,3.83352 4.17298,9.2214 4.94076,14.32658 0.37598,2.50004 0.38924,36.15108 0.0155,39.24689 -0.67908,5.62447 -2.47854,12.23332 -4.48735,16.48068 -1.00147,2.11749 -2.01632,2.82074 -3.46921,2.40406 -1.78558,-0.51209 -2.37276,-2.49699 -1.33844,-4.52443 0.8738,-1.71275 2.60031,-6.95589 3.17357,-9.63757 1.06995,-5.00517 1.14068,-6.75526 1.04127,-25.76406 l -0.0955,-18.25625 -0.70612,-2.64583 c -1.79498,-6.72589 -4.25142,-10.92906 -9.66433,-16.53646 l -2.68177,-2.77813 -0.0111,23.16161 c -0.0124,25.8205 0.0405,25.01414 -1.82004,27.73816 -1.92178,2.8137 -5.54505,4.51285 -8.87993,4.16429 -2.831917,-0.29599 -5.709577,-2.08203 -7.226677,-4.48527 -0.35342,-0.55985 -1.64616,-4.00436 -2.87276,-7.65446 -1.2266,-3.65011 -2.39962,-6.89515 -2.60671,-7.2112 -0.52775,-0.80546 -1.81342,-1.27984 -2.9107,-1.07398 -1.19979,0.22508 -2.18901,1.42169 -2.41364,2.91968 -0.097,0.64685 -0.11773,6.21245 -0.046,12.36801 0.15261,13.1054 0.12082,12.88835 2.87338,19.61644 3.54147,8.65641 3.55232,8.70464 2.23598,9.94127 -0.98299,0.92347 -2.281,0.99838 -3.24495,0.18727 z m 46.109687,-95.78494 0.89958,-0.89958 V 90.069428 c 0,-13.110511 -0.0757,-13.865645 -1.63252,-16.291796 -3.95563,-6.164308 -12.89467,-6.153382 -16.8565,0.0206 -1.55629,2.425258 -1.61931,3.093518 -1.61931,17.170776 v 12.776702 h 9.15458 9.15459 z m -61.674369,81.88655 c -1.686116,-0.72201 -2.13197,-2.90755 -0.853882,-4.18564 1.606653,-1.60665 4.28144,-0.49466 4.28144,1.77992 0,1.74231 -1.885821,3.06592 -3.427558,2.40572 z M 34.145058,163.53709 c -1.207805,-0.36254 -2.584039,-1.57454 -3.114638,-2.74295 -0.443182,-0.97592 -0.494557,-1.81742 -0.494557,-8.10051 0,-6.23762 0.0536,-7.12947 0.485706,-8.08074 0.59273,-1.30489 1.832746,-2.39 3.148909,-2.75553 0.558323,-0.15506 3.845321,-0.2714 7.598554,-0.26894 7.431426,0.005 7.987964,0.11625 9.567018,1.91469 1.183685,1.34815 1.41319,2.84071 1.41319,9.19052 0,6.34982 -0.229505,7.84238 -1.41319,9.19052 -1.588646,1.80936 -2.116743,1.91246 -9.69931,1.89343 -3.710781,-0.009 -7.082038,-0.11753 -7.491682,-0.24049 z M 47.457573,152.69363 V 146.8728 H 41.63674 35.815907 v 5.82083 5.82083 h 5.820833 5.820833 z m -13.58498,-21.02344 c -1.310105,-0.46711 -2.236496,-1.33122 -2.848278,-2.65677 -0.435968,-0.94462 -0.488452,-1.81172 -0.488452,-8.06979 0,-6.23762 0.0536,-7.12947 0.485706,-8.08074 0.59273,-1.30489 1.832746,-2.39 3.148909,-2.75553 0.558323,-0.15506 3.845321,-0.2714 7.598554,-0.26894 7.431426,0.005 7.987964,0.11625 9.567018,1.91469 1.183685,1.34814 1.41319,2.8407 1.41319,9.19052 0,6.34981 -0.229505,7.84237 -1.41319,9.19052 -1.586061,1.80642 -2.119035,1.91107 -9.69931,1.90456 -5.031266,-0.004 -7.005548,-0.098 -7.764147,-0.36852 z m 13.58498,-10.72656 V 115.1228 H 41.63674 35.815907 v 5.82083 5.82083 h 5.820833 5.820833 z m 15.742708,10.8054 c -1.94592,-1.07012 -1.918756,-3.68283 0.04875,-4.68902 0.40639,-0.20783 5.221449,-0.29555 16.223122,-0.29555 11.00168,0 15.81673,0.0877 16.22312,0.29555 0.93304,0.47716 1.4922,1.35786 1.4922,2.35028 0,0.99243 -0.55916,1.87313 -1.4922,2.35029 -0.80674,0.41257 -31.743763,0.40158 -32.494994,-0.0115 z M 33.872593,99.9202 c -1.310105,-0.46712 -2.236496,-1.33123 -2.848278,-2.65678 -0.435968,-0.944613 -0.488452,-1.811714 -0.488452,-8.069789 0,-6.237624 0.0536,-7.129471 0.485706,-8.080737 0.59273,-1.304894 1.832746,-2.390002 3.148909,-2.755536 0.558323,-0.155062 3.845321,-0.2714 7.598554,-0.26894 7.431426,0.0049 7.987964,0.116253 9.567018,1.914695 1.183685,1.348143 1.41319,2.840704 1.41319,9.190518 0,6.349814 -0.229505,7.842369 -1.41319,9.190519 -1.586061,1.80642 -2.119035,1.91107 -9.69931,1.90456 -5.031266,-0.004 -7.005548,-0.098 -7.764147,-0.36851 z M 47.457573,89.193631 V 83.372798 H 41.63674 35.815907 v 5.820833 5.820833 h 5.820833 5.820833 z m 15.742708,10.818689 c -1.970577,-1.13317 -1.91966,-3.693249 0.09401,-4.726526 1.923971,-0.98725 4.230066,1.224981 3.384825,3.247056 -0.194783,0.46598 -0.540567,1.00183 -0.768405,1.19077 -0.588378,0.48793 -2.08647,0.6475 -2.710426,0.2887 z M 75.179328,99.8937 c -0.885799,-0.48071 -1.263423,-1.14825 -1.263423,-2.2334 0,-1.107147 0.385395,-1.764149 1.31762,-2.246223 0.647409,-0.334788 2.322878,-0.399613 10.328298,-0.399613 9.93796,0 10.25951,0.03327 11.16851,1.155446 0.93575,1.1552 0.41137,3.10096 -1.03506,3.84067 -0.39548,0.20225 -3.61112,0.29221 -10.18645,0.28496 -7.963446,-0.009 -9.731979,-0.0776 -10.329495,-0.40184 z"
       id="path890"
       inkscape:transform-center-x="-55.946807"
       inkscape:transform-center-y="-25.969491" />
  </g>
</svg>
