<?xml version="1.0" encoding="UTF-8" standalone="no"?>
<!-- Created with Inkscape (http://www.inkscape.org/) -->

<svg
   width="135.31905mm"
   height="135.31613mm"
   viewBox="0 0 135.31905 135.31613"
   version="1.1"
   id="svg5"
   inkscape:version="1.1 (c68e22c387, 2021-05-23)"
   sodipodi:docname="user.svg"
   xmlns:inkscape="http://www.inkscape.org/namespaces/inkscape"
   xmlns:sodipodi="http://sodipodi.sourceforge.net/DTD/sodipodi-0.dtd"
   xmlns="http://www.w3.org/2000/svg"
   xmlns:svg="http://www.w3.org/2000/svg">
  <sodipodi:namedview
     id="namedview7"
     pagecolor="#ffffff"
     bordercolor="#666666"
     borderopacity="1.0"
     inkscape:pageshadow="2"
     inkscape:pageopacity="0.0"
     inkscape:pagecheckerboard="0"
     inkscape:document-units="mm"
     showgrid="false"
     inkscape:zoom="0.81116302"
     inkscape:cx="-27.121552"
     inkscape:cy="406.20688"
     inkscape:window-width="2560"
     inkscape:window-height="1026"
     inkscape:window-x="1366"
     inkscape:window-y="28"
     inkscape:window-maximized="1"
     inkscape:current-layer="layer1"
     fit-margin-top="0"
     fit-margin-left="0"
     fit-margin-right="0"
     fit-margin-bottom="0" />
  <defs
     id="defs2" />
  <g
     inkscape:label="Layer 1"
     inkscape:groupmode="layer"
     id="layer1"
     transform="translate(-35.696798,-78.869545)">
    <path
       style="fill:#ffa000;stroke-width:0.264583;fill-opacity:1"
       d="m 47.846493,213.6627 c -4.58874,-1.20224 -8.36471,-4.20072 -10.34335,-8.21359 -2.11861,-4.29675 -2.33049,-7.57796 -0.86172,-13.34501 4.38532,-17.21877 15.39881,-32.2948 30.43663,-41.66378 2.91555,-1.81647 8.22469,-4.44473 11.53537,-5.71053 1.45521,-0.55638 2.73572,-1.08507 2.84559,-1.17486 0.10986,-0.0898 -0.48545,-0.7516 -1.32292,-1.4707 -6.44951,-5.53789 -10.39559,-12.3623 -12.15483,-21.02075 -0.68113,-3.35229 -0.61102,-9.85812 0.14464,-13.42328 3.04531,-14.367591 13.76671,-25.090164 28.15278,-28.155881 3.846487,-0.819699 10.300067,-0.819699 14.146567,0 14.38607,3.065717 25.10746,13.78829 28.15278,28.155881 0.75566,3.56516 0.82576,10.07099 0.14464,13.42328 -1.75924,8.65845 -5.70532,15.48286 -12.15484,21.02075 -0.83747,0.7191 -1.43278,1.3889 -1.32291,1.48846 0.10986,0.0995 1.34201,0.6041 2.73811,1.12121 11.46537,4.24676 22.73302,12.73766 30.26142,22.80395 2.77543,3.71106 3.08906,4.33443 3.08906,6.13985 0,1.92818 -1.00093,3.61018 -2.68363,4.5097 -0.98034,0.52406 -1.48219,0.61896 -2.84142,0.53735 -2.34163,-0.1406 -2.48526,-0.26543 -6.81587,-5.92368 -2.17307,-2.83926 -6.89623,-7.54315 -9.88203,-9.84169 -15.31254,-11.78797 -35.34075,-15.29897 -53.617967,-9.39939 -18.98565,6.12825 -33.77773,21.93975 -38.61658,41.27789 -0.37072,1.48158 -0.67143,3.08892 -0.66823,3.57187 0.0134,2.02406 1.87924,4.40496 3.88956,4.96323 1.40716,0.39077 105.113187,0.38768 106.520747,-0.003 1.3704,-0.38055 2.96349,-1.88061 3.50609,-3.30137 0.34893,-0.91367 0.40625,-1.5825 0.2615,-3.05146 -0.16839,-1.70885 -0.12066,-2.0136 0.52068,-3.32444 2.01784,-4.12433 7.75146,-3.96508 9.51822,0.26436 0.64985,1.55569 0.78778,4.97593 0.29499,7.31532 -1.29971,6.17021 -5.82048,10.87097 -11.96637,12.44283 -1.99831,0.51108 -3.13411,0.52145 -55.50971,0.50719 -51.740337,-0.0141 -53.531987,-0.0309 -55.396997,-0.51954 z m 59.090437,-73.83237 c 2.70079,-0.37565 5.0874,-1.12838 7.64392,-2.41088 2.9743,-1.49207 4.21763,-2.39524 6.64582,-4.8276 3.37685,-3.38266 5.50807,-7.06665 6.78802,-11.73367 0.45891,-1.6733 0.56048,-2.78682 0.56048,-6.14469 0,-3.35788 -0.10157,-4.47139 -0.56048,-6.1447 -2.52772,-9.21671 -9.30132,-15.990309 -18.51803,-18.518028 -1.67331,-0.458913 -2.78683,-0.56048 -6.1447,-0.56048 -3.357867,0 -4.471377,0.101567 -6.144687,0.56048 -9.21671,2.527719 -15.99031,9.301318 -18.51803,18.518028 -0.80735,2.94381 -0.80735,9.34558 0,12.28939 1.27995,4.66702 3.41117,8.35101 6.78802,11.73367 2.42659,2.43076 3.66868,3.33336 6.64581,4.82939 4.63327,2.32825 9.594397,3.13505 14.813857,2.40909 z"
       id="path21"
       inkscape:export-filename="/home/rhtua/Documents/Projetos/node-dev-app/app/client/src/assets/images/user.svg"
       inkscape:export-xdpi="300"
       inkscape:export-ydpi="300" />
  </g>
</svg>
